<svg xmlns="http://www.w3.org/2000/svg" xmlns:xlink="http://www.w3.org/1999/xlink" contentStyleType="text/css" data-diagram-type="DESCRIPTION" height="677px" preserveAspectRatio="none" style="width:2596px;height:677px;background:#FFFFFF;" version="1.1" viewBox="0 0 2596 677" width="2596px" zoomAndPan="magnify"><defs/><g><!--cluster DockerHub--><g class="cluster" data-entity="DockerHub" data-source-line="7" data-uid="ent0004" id="cluster_DockerHub"><path d="M49.2135,384.7527 C64.2139,363.2176 82.8147,361.9918 96.1057,386.4937 C110.4347,362.9522 131.4256,357.9898 148.1319,383.9976 C165.0693,363.2868 188.0425,361.4904 201.6723,387.7664 C216.371,361.3115 236.1642,358.6896 257.1527,380.5427 C270.1184,356.5184 290.9306,359.2207 304.6156,379.7769 C320.8437,350.1022 337.4891,347.5213 358.9451,374.789 C373.7024,350.2767 400.2686,348.575 414.5281,375.3287 C432.4786,352.4185 450.295,357.9243 463.8106,380.1691 C481.7978,351.8268 504.3891,356.2332 518.2327,384.1755 C528.3204,357.709 553.5946,358.9677 569.217,377.9693 C581.051,356.5313 602.9121,355.9365 613.5085,379.1956 C639.0103,351.6625 658.5774,354.0603 673.3359,389.4159 C688.0056,362.2385 704.0517,360.4974 722.2901,386.1063 C740.1309,360.8883 762.9257,362.2154 775.7211,391.09 C777.7084,390.268 778.9038,390.5704 779.2627,392.9126 C809.2994,408.7441 814.488,430.8154 785.1871,452.5422 C807.4253,473.9948 812.6954,493.9041 780.0615,510.5043 C808.8967,525.5733 803.5279,549.5603 779.6493,564.225 C805.9773,585.8104 799.6915,610.363 768.7211,620.9 C771.092,616.6065 775.0376,616.6194 777.295,621.0121 C765.0317,646.6576 739.4845,652.5279 719.6549,630.0804 C705.7668,648.2922 683.6251,650.421 673.703,625.8233 C656.7155,652.6935 636.6594,653.9138 615.8184,630.2361 C602.3123,650.5731 582.3703,652.852 568.6383,630.4857 C557.0335,656.7484 533.2203,661.7024 516.4756,635.6063 C501.8763,658.5607 474.66,661.963 459.8865,635.8069 C444.8712,662.5024 422.7503,657.4048 408.4243,635.0832 C392.566,658.9759 367.9271,659.404 355.0915,631.944 C341.5914,654.0404 323.0279,656.6788 308.2751,633.2318 C289.3173,653.5831 270.7465,653.757 258.407,626.3249 C242.5808,653.166 215.2097,657.5721 199.4773,626.2299 C188.8667,652.697 164.2264,655.1242 148.0621,631.9864 C133.6381,649.8262 112.358,648.2424 102.9182,626.3266 C75.119,658.2011 51.7428,650.0919 36.7211,613.9 C42.0005,615.2063 43.7267,618.7431 39.6858,623.0645 C10.087,608.7121 13.6535,578.0773 37.7767,562.0441 C13.3611,543.9924 8.5232,527.1032 34.8374,506.3731 C6,488.7409 12.9154,463.3459 37.728,448.3881 C9.32,427.9968 12.0581,398.8822 43.7211,384.09 C45.9841,381.3187 47.6695,381.5642 49.2135,384.7527" fill="none" style="stroke:#181818;stroke-width:1;"/><text fill="#000000" font-family="sans-serif" font-size="14" font-weight="bold" lengthAdjust="spacing" textLength="91.8271" x="360.3075" y="402.0851">Docker Hub</text></g><!--cluster ProdCluster--><g class="cluster" data-entity="ProdCluster" data-source-line="14" data-uid="ent0009" id="cluster_ProdCluster"><polygon fill="none" points="815.7211,154.8,825.7211,144.8,2579.7211,144.8,2579.7211,650.9,2569.7211,660.9,815.7211,660.9,815.7211,154.8" style="stroke:#181818;stroke-width:1;"/><line style="stroke:#181818;stroke-width:1;" x1="2569.7211" x2="2579.7211" y1="154.8" y2="144.8"/><line style="stroke:#181818;stroke-width:1;" x1="815.7211" x2="2569.7211" y1="154.8" y2="154.8"/><line style="stroke:#181818;stroke-width:1;" x1="2569.7211" x2="2569.7211" y1="154.8" y2="660.9"/><text fill="#000000" font-family="sans-serif" font-size="14" font-weight="bold" lengthAdjust="spacing" textLength="147.4854" x="1619.9784" y="170.7951">Production Cluster</text></g><!--cluster K8s--><g class="cluster" data-entity="K8s" data-source-line="15" data-uid="ent0010" id="cluster_K8s"><polygon fill="none" points="1482.7211,210.8,1492.7211,200.8,2045.7211,200.8,2045.7211,435.6,2035.7211,445.6,1482.7211,445.6,1482.7211,210.8" style="stroke:#181818;stroke-width:1;"/><line style="stroke:#181818;stroke-width:1;" x1="2035.7211" x2="2045.7211" y1="210.8" y2="200.8"/><line style="stroke:#181818;stroke-width:1;" x1="1482.7211" x2="2035.7211" y1="210.8" y2="210.8"/><line style="stroke:#181818;stroke-width:1;" x1="2035.7211" x2="2035.7211" y1="210.8" y2="445.6"/><text fill="#000000" font-family="sans-serif" font-size="14" font-weight="bold" lengthAdjust="spacing" textLength="152.5576" x="1683.9423" y="226.7951">Kubernetes Cluster</text></g><!--cluster Queue--><g class="cluster" data-entity="Queue" data-source-line="22" data-uid="ent0015" id="cluster_Queue"><path d="M1577.7211,525.6 L1766.7211,525.6 C1771.7211,525.6 1771.7211,577.25 1771.7211,577.25 C1771.7211,577.25 1771.7211,628.9 1766.7211,628.9 L1577.7211,628.9 C1572.7211,628.9 1572.7211,577.25 1572.7211,577.25 C1572.7211,577.25 1572.7211,525.6 1577.7211,525.6" fill="none" style="stroke:#181818;stroke-width:1;"/><path d="M1766.7211,525.6 C1761.7211,525.6 1761.7211,577.25 1761.7211,577.25 C1761.7211,628.9 1766.7211,628.9 1766.7211,628.9" fill="none" style="stroke:#181818;stroke-width:1;"/><text fill="#000000" font-family="sans-serif" font-size="14" font-weight="bold" lengthAdjust="spacing" textLength="77.5947" x="1633.4237" y="540.5951">RabbitMQ</text></g><!--cluster DocumentDB--><g class="cluster" data-entity="DocumentDB" data-source-line="26" data-uid="ent0017" id="cluster_DocumentDB"><path d="M847.7211,520.6 C847.7211,510.6 1023.2211,510.6 1023.2211,510.6 C1023.2211,510.6 1198.7211,510.6 1198.7211,520.6 L1198.7211,618.9 C1198.7211,628.9 1023.2211,628.9 1023.2211,628.9 C1023.2211,628.9 847.7211,628.9 847.7211,618.9 L847.7211,520.6" fill="none" style="stroke:#181818;stroke-width:1;"/><path d="M847.7211,520.6 C847.7211,530.6 1023.2211,530.6 1023.2211,530.6 C1023.2211,530.6 1198.7211,530.6 1198.7211,520.6" fill="none" style="stroke:#181818;stroke-width:1;"/><text fill="#000000" font-family="sans-serif" font-size="14" font-weight="bold" lengthAdjust="spacing" textLength="217.3145" x="914.5639" y="545.5951">Document DB (PostgreSQL)</text></g><!--cluster MinIO--><g class="cluster" data-entity="MinIO" data-source-line="29" data-uid="ent0019" id="cluster_MinIO"><rect fill="none" height="103.3" rx="35" ry="35" style="stroke:#181818;stroke-width:1;" width="294" x="1238.7211" y="525.6"/><text fill="#000000" font-family="sans-serif" font-size="14" font-weight="bold" lengthAdjust="spacing" textLength="181.8223" x="1294.8099" y="545.5951">Object Storage (MinIO)</text></g><!--cluster InteropDB--><g class="cluster" data-entity="InteropDB" data-source-line="32" data-uid="ent0021" id="cluster_InteropDB"><path d="M1811.7211,520.6 C1811.7211,510.6 1976.2211,510.6 1976.2211,510.6 C1976.2211,510.6 2140.7211,510.6 2140.7211,520.6 L2140.7211,618.9 C2140.7211,628.9 1976.2211,628.9 1976.2211,628.9 C1976.2211,628.9 1811.7211,628.9 1811.7211,618.9 L1811.7211,520.6" fill="none" style="stroke:#181818;stroke-width:1;"/><path d="M1811.7211,520.6 C1811.7211,530.6 1976.2211,530.6 1976.2211,530.6 C1976.2211,530.6 2140.7211,530.6 2140.7211,520.6" fill="none" style="stroke:#181818;stroke-width:1;"/><text fill="#000000" font-family="sans-serif" font-size="14" font-weight="bold" lengthAdjust="spacing" textLength="194.9746" x="1878.7338" y="545.5951">Interop DB (PostgreSQL)</text></g><!--cluster NotificationsDB--><g class="cluster" data-entity="NotificationsDB" data-source-line="35" data-uid="ent0023" id="cluster_NotificationsDB"><path d="M2180.7211,520.6 C2180.7211,510.6 2364.2211,510.6 2364.2211,510.6 C2364.2211,510.6 2547.7211,510.6 2547.7211,520.6 L2547.7211,618.9 C2547.7211,628.9 2364.2211,628.9 2364.2211,628.9 C2364.2211,628.9 2180.7211,628.9 2180.7211,618.9 L2180.7211,520.6" fill="none" style="stroke:#181818;stroke-width:1;"/><path d="M2180.7211,520.6 C2180.7211,530.6 2364.2211,530.6 2364.2211,530.6 C2364.2211,530.6 2547.7211,530.6 2547.7211,520.6" fill="none" style="stroke:#181818;stroke-width:1;"/><text fill="#000000" font-family="sans-serif" font-size="14" font-weight="bold" lengthAdjust="spacing" textLength="237.9385" x="2245.2518" y="545.5951">Notifications DB (PostgreSQL)</text></g><!--entity DocumentImage--><g class="entity" data-entity="DocumentImage" data-source-line="8" data-uid="ent0005" id="entity_DocumentImage"><rect fill="#F1F1F1" height="36.2969" rx="2.5" ry="2.5" style="stroke:#181818;stroke-width:0.5;" width="161.1143" x="423.1611" y="568.6"/><text fill="#000000" font-family="sans-serif" font-size="14" lengthAdjust="spacing" textLength="141.1143" x="433.1611" y="591.5951">document-api:latest</text></g><!--entity InteropImage--><g class="entity" data-entity="InteropImage" data-source-line="9" data-uid="ent0006" id="entity_InteropImage"><rect fill="#F1F1F1" height="36.2969" rx="2.5" ry="2.5" style="stroke:#181818;stroke-width:0.5;" width="140.5518" x="619.4411" y="568.6"/><text fill="#000000" font-family="sans-serif" font-size="14" lengthAdjust="spacing" textLength="120.5518" x="629.4411" y="591.5951">interop-api:latest</text></g><!--entity NotificationsImage--><g class="entity" data-entity="NotificationsImage" data-source-line="10" data-uid="ent0007" id="entity_NotificationsImage"><rect fill="#F1F1F1" height="36.2969" rx="2.5" ry="2.5" style="stroke:#181818;stroke-width:0.5;" width="176.502" x="52.4711" y="568.6"/><text fill="#000000" font-family="sans-serif" font-size="14" lengthAdjust="spacing" textLength="156.502" x="62.4711" y="591.5951">notifications-api:latest</text></g><!--entity FrontendImage--><g class="entity" data-entity="FrontendImage" data-source-line="11" data-uid="ent0008" id="entity_FrontendImage"><rect fill="#F1F1F1" height="36.2969" rx="2.5" ry="2.5" style="stroke:#181818;stroke-width:0.5;" width="124.0566" x="263.6911" y="568.6"/><text fill="#000000" font-family="sans-serif" font-size="14" lengthAdjust="spacing" textLength="104.0566" x="273.6911" y="591.5951">frontend:latest</text></g><!--entity DocumentAPI--><g class="entity" data-entity="DocumentAPI" data-source-line="16" data-uid="ent0011" id="entity_DocumentAPI"><rect fill="#F1F1F1" height="36.2969" rx="2.5" ry="2.5" style="stroke:#181818;stroke-width:0.5;" width="147.3877" x="1515.0311" y="385.31"/><text fill="#000000" font-family="sans-serif" font-size="14" lengthAdjust="spacing" textLength="127.3877" x="1525.0311" y="408.3051">document-api Pod</text></g><!--entity InteropAPI--><g class="entity" data-entity="InteropAPI" data-source-line="17" data-uid="ent0012" id="entity_InteropAPI"><rect fill="#F1F1F1" height="36.2969" rx="2.5" ry="2.5" style="stroke:#181818;stroke-width:0.5;" width="126.8252" x="1697.3111" y="385.31"/><text fill="#000000" font-family="sans-serif" font-size="14" lengthAdjust="spacing" textLength="106.8252" x="1707.3111" y="408.3051">interop-api Pod</text></g><!--entity NotificationsAPI--><g class="entity" data-entity="NotificationsAPI" data-source-line="18" data-uid="ent0013" id="entity_NotificationsAPI"><rect fill="#F1F1F1" height="36.2969" rx="2.5" ry="2.5" style="stroke:#181818;stroke-width:0.5;" width="162.7754" x="1859.3311" y="385.31"/><text fill="#000000" font-family="sans-serif" font-size="14" lengthAdjust="spacing" textLength="142.7754" x="1869.3311" y="408.3051">notifications-api Pod</text></g><!--entity Frontend--><g class="entity" data-entity="Frontend" data-source-line="19" data-uid="ent0014" id="entity_Frontend"><rect fill="#F1F1F1" height="36.2969" rx="2.5" ry="2.5" style="stroke:#181818;stroke-width:0.5;" width="110.3301" x="1705.5511" y="248.8"/><text fill="#000000" font-family="sans-serif" font-size="14" lengthAdjust="spacing" textLength="90.3301" x="1715.5511" y="271.7951">frontend Pod</text></g><!--entity Message Broker--><g class="entity" data-entity="Message Broker" data-source-line="23" data-uid="ent0016" id="entity_Message Broker"><rect fill="#F1F1F1" height="36.2969" rx="2.5" ry="2.5" style="stroke:#181818;stroke-width:0.5;" width="132.2119" x="1596.6111" y="568.6"/><text fill="#000000" font-family="sans-serif" font-size="14" lengthAdjust="spacing" textLength="112.2119" x="1606.6111" y="591.5951">Message Broker</text></g><!--entity Relational Database for DocumentAPI--><g class="entity" data-entity="Relational Database for DocumentAPI" data-source-line="27" data-uid="ent0018" id="entity_Relational Database for DocumentAPI"><rect fill="#F1F1F1" height="36.2969" rx="2.5" ry="2.5" style="stroke:#181818;stroke-width:0.5;" width="284.1748" x="871.6311" y="568.6"/><text fill="#000000" font-family="sans-serif" font-size="14" lengthAdjust="spacing" textLength="264.1748" x="881.6311" y="591.5951">Relational Database for DocumentAPI</text></g><!--entity File Storage for DocumentAPI--><g class="entity" data-entity="File Storage for DocumentAPI" data-source-line="30" data-uid="ent0020" id="entity_File Storage for DocumentAPI"><rect fill="#F1F1F1" height="36.2969" rx="2.5" ry="2.5" style="stroke:#181818;stroke-width:0.5;" width="226.5" x="1262.4711" y="568.6"/><text fill="#000000" font-family="sans-serif" font-size="14" lengthAdjust="spacing" textLength="206.5" x="1272.4711" y="591.5951">File Storage for DocumentAPI</text></g><!--entity Relational Database for InteropAPI--><g class="entity" data-entity="Relational Database for InteropAPI" data-source-line="33" data-uid="ent0022" id="entity_Relational Database for InteropAPI"><rect fill="#F1F1F1" height="36.2969" rx="2.5" ry="2.5" style="stroke:#181818;stroke-width:0.5;" width="261.958" x="1835.7411" y="568.6"/><text fill="#000000" font-family="sans-serif" font-size="14" lengthAdjust="spacing" textLength="241.958" x="1845.7411" y="591.5951">Relational Database for InteropAPI</text></g><!--entity Relational Database for NotificationsAPI--><g class="entity" data-entity="Relational Database for NotificationsAPI" data-source-line="36" data-uid="ent0024" id="entity_Relational Database for NotificationsAPI"><rect fill="#F1F1F1" height="36.2969" rx="2.5" ry="2.5" style="stroke:#181818;stroke-width:0.5;" width="299.2686" x="2205.0911" y="568.6"/><text fill="#000000" font-family="sans-serif" font-size="14" lengthAdjust="spacing" textLength="279.2686" x="2215.0911" y="591.5951">Relational Database for NotificationsAPI</text></g><!--entity Dev--><g class="entity" data-entity="Dev" data-source-line="4" data-uid="ent0002" id="entity_Dev"><ellipse cx="503.7225" cy="237.3" fill="#F1F1F1" rx="8" ry="8" style="stroke:#181818;stroke-width:0.5;"/><path d="M503.7225,245.3 L503.7225,272.3 M490.7225,253.3 L516.7225,253.3 M503.7225,272.3 L490.7225,287.3 M503.7225,272.3 L516.7225,287.3" fill="none" style="stroke:#181818;stroke-width:0.5;"/><text fill="#000000" font-family="sans-serif" font-size="14" lengthAdjust="spacing" textLength="72.0029" x="467.7211" y="301.7951">Developer</text></g><!--entity EndUser--><g class="entity" data-entity="EndUser" data-source-line="5" data-uid="ent0003" id="entity_EndUser"><ellipse cx="1760.7162" cy="14" fill="#F1F1F1" rx="8" ry="8" style="stroke:#181818;stroke-width:0.5;"/><path d="M1760.7162,22 L1760.7162,49 M1747.7162,30 L1773.7162,30 M1760.7162,49 L1747.7162,64 M1760.7162,49 L1773.7162,64" fill="none" style="stroke:#181818;stroke-width:0.5;"/><text fill="#000000" font-family="sans-serif" font-size="14" lengthAdjust="spacing" textLength="31.9102" x="1744.7611" y="78.4951">User</text></g><!--link Dev to DockerHub--><g class="link" data-entity-1="Dev" data-entity-2="DockerHub" data-source-line="40" data-uid="lnk25" id="link_Dev_DockerHub"><path d="M503.7211,305.41 C503.7211,324.69 503.7211,348.06 503.7211,367.035 C503.7211,369.4069 503.7211,371.7101 503.7211,373.928 C503.7211,374.4825 503.7211,375.0317 503.7211,375.5753 C503.7211,375.7112 503.7211,369.8467 503.7211,369.9819" fill="none" id="Dev-to-DockerHub" style="stroke:#181818;stroke-width:1;"/><polygon fill="#181818" points="503.7211,375.9819,507.7211,366.9819,503.7211,370.9819,499.7211,366.9819,503.7211,375.9819" style="stroke:#181818;stroke-width:1;"/><text fill="#000000" font-family="sans-serif" font-size="13" lengthAdjust="spacing" textLength="82.71" x="504.7211" y="348.1569">Push Images</text></g><!--link DockerHub to DocumentImage--><g class="link" data-entity-1="DockerHub" data-entity-2="DocumentImage" data-source-line="41" data-uid="lnk26" id="link_DockerHub_DocumentImage"><path d="M503.7211,404.59 C503.7211,409 503.7211,517.62 503.7211,562.22" fill="none" id="DockerHub-to-DocumentImage" style="stroke:#181818;stroke-width:1;"/><polygon fill="#181818" points="503.7211,568.22,507.7211,559.22,503.7211,563.22,499.7211,559.22,503.7211,568.22" style="stroke:#181818;stroke-width:1;"/></g><!--link DockerHub to InteropImage--><g class="link" data-entity-1="DockerHub" data-entity-2="InteropImage" data-source-line="42" data-uid="lnk27" id="link_DockerHub_InteropImage"><path d="M503.8811,404.6 C507.1911,407.5 560.6911,454.56 601.7211,494.6 C627.3811,519.65 651.9348,545.3752 669.3648,563.9452" fill="none" id="DockerHub-to-InteropImage" style="stroke:#181818;stroke-width:1;"/><polygon fill="#181818" points="673.4711,568.32,670.2283,559.0203,670.0492,564.6743,664.3952,564.4953,673.4711,568.32" style="stroke:#181818;stroke-width:1;"/></g><!--link DockerHub to NotificationsImage--><g class="link" data-entity-1="DockerHub" data-entity-2="NotificationsImage" data-source-line="43" data-uid="lnk28" id="link_DockerHub_NotificationsImage"><path d="M503.6111,404.48 C498.9511,405.38 349.1511,434.62 245.7211,494.6 C210.4311,515.07 180.1226,543.9082 160.7826,564.0882" fill="none" id="DockerHub-to-NotificationsImage" style="stroke:#181818;stroke-width:1;"/><polygon fill="#181818" points="156.6311,568.42,165.7463,564.6899,160.0907,564.8101,159.9705,559.1546,156.6311,568.42" style="stroke:#181818;stroke-width:1;"/></g><!--link DockerHub to FrontendImage--><g class="link" data-entity-1="DockerHub" data-entity-2="FrontendImage" data-source-line="44" data-uid="lnk29" id="link_DockerHub_FrontendImage"><path d="M503.5611,404.59 C500.1911,407.44 445.7811,453.59 405.7211,494.6 C381.7411,519.15 359.7053,544.7833 344.0753,563.5133" fill="none" id="DockerHub-to-FrontendImage" style="stroke:#181818;stroke-width:1;"/><polygon fill="#181818" points="340.2311,568.12,349.0686,563.7728,343.4346,564.2811,342.9263,558.6471,340.2311,568.12" style="stroke:#181818;stroke-width:1;"/></g><!--link K8s to DockerHub--><g class="link" data-entity-1="K8s" data-entity-2="DockerHub" data-source-line="46" data-uid="lnk30" id="link_K8s_DockerHub"><path d="M1482.3045,269.0904 C1481.9117,269.1439 1481.5056,269.1993 1481.0865,269.2564 C1480.2482,269.3707 1479.3575,269.4921 1478.4154,269.6205 C1470.8781,270.6477 1460.0456,272.124 1446.3887,273.9852 C1419.075,277.7077 1380.4636,282.9697 1334.3205,289.2581 C1242.0342,301.835 1119.6211,318.5175 997.2086,335.2 C936.0023,343.5412 874.7962,351.8825 817.3562,359.7105 C788.6362,363.6246 760.8578,367.4103 734.4916,371.0036 C727.9,371.9019 721.3967,372.7882 714.989,373.6614 C711.7852,374.0981 708.6053,374.5314 705.4502,374.9614 C703.8726,375.1764 702.3013,375.3906 700.7363,375.6039 C699.9538,375.7105 705.1179,375.0067 704.3385,375.1129" fill="none" id="K8s-to-DockerHub" style="stroke:#181818;stroke-width:1;"/><polygon fill="#181818" points="698.3935,375.9231,707.8512,378.6712,703.3477,375.248,706.7709,370.7445,698.3935,375.9231" style="stroke:#181818;stroke-width:1;"/><text fill="#000000" font-family="sans-serif" font-size="13" lengthAdjust="spacing" textLength="74.9214" x="997.7211" y="348.1569">Pull Images</text></g><!--link Frontend to DocumentAPI--><g class="link" data-entity-1="Frontend" data-entity-2="DocumentAPI" data-source-line="47" data-uid="lnk31" id="link_Frontend_DocumentAPI"><path d="M1734.7211,285.56 C1715.5811,298.76 1689.1111,317.49 1666.7211,335.09 C1646.0411,351.35 1627.8604,367.1469 1612.3304,381.0569" fill="none" id="Frontend-to-DocumentAPI" style="stroke:#181818;stroke-width:1;"/><polygon fill="#181818" points="1607.8611,385.06,1617.2338,382.0349,1611.5855,381.7241,1611.8963,376.0758,1607.8611,385.06" style="stroke:#181818;stroke-width:1;"/><text fill="#000000" font-family="sans-serif" font-size="13" lengthAdjust="spacing" textLength="84.8618" x="1667.7211" y="348.1569">API Requests</text></g><!--link Frontend to InteropAPI--><g class="link" data-entity-1="Frontend" data-entity-2="InteropAPI" data-source-line="48" data-uid="lnk32" id="link_Frontend_InteropAPI"><path d="M1760.7211,285.53 C1760.7211,311.31 1760.7211,353.08 1760.7211,378.87" fill="none" id="Frontend-to-InteropAPI" style="stroke:#181818;stroke-width:1;"/><polygon fill="#181818" points="1760.7211,384.87,1764.7211,375.87,1760.7211,379.87,1756.7211,375.87,1760.7211,384.87" style="stroke:#181818;stroke-width:1;"/><text fill="#000000" font-family="sans-serif" font-size="13" lengthAdjust="spacing" textLength="84.8618" x="1761.7211" y="348.1569">API Requests</text></g><!--link Frontend to NotificationsAPI--><g class="link" data-entity-1="Frontend" data-entity-2="NotificationsAPI" data-source-line="49" data-uid="lnk33" id="link_Frontend_NotificationsAPI"><path d="M1785.6811,285.32 C1804.7411,298.71 1831.6011,317.79 1854.7211,335.09 C1876.8911,351.68 1897.0485,367.5211 1914.3185,381.2811" fill="none" id="Frontend-to-NotificationsAPI" style="stroke:#181818;stroke-width:1;"/><polygon fill="#181818" points="1919.0111,385.02,1914.4647,376.2833,1915.1006,381.9043,1909.4796,382.5401,1919.0111,385.02" style="stroke:#181818;stroke-width:1;"/><text fill="#000000" font-family="sans-serif" font-size="13" lengthAdjust="spacing" textLength="84.8618" x="1876.7211" y="348.1569">API Requests</text></g><!--link DocumentAPI to DocumentDB--><g class="link" data-entity-1="DocumentAPI" data-entity-2="DocumentDB" data-source-line="51" data-uid="lnk34" id="link_DocumentAPI_DocumentDB"><path d="M1514.7011,411.56 C1429.2711,421 1295.3011,440.02 1254.7211,469.6 C1231.2811,486.69 1215.4111,515.095 1205.3373,539.5362 C1202.8189,545.6466 1202.5882,545.8265 1200.7666,551.2026" fill="none" id="DocumentAPI-to-DocumentDB" style="stroke:#181818;stroke-width:1;"/><polygon fill="#181818" points="1198.8411,556.8853,1205.5178,549.6449,1200.4457,552.1497,1197.9409,547.0776,1198.8411,556.8853" style="stroke:#181818;stroke-width:1;"/><text fill="#000000" font-family="sans-serif" font-size="13" lengthAdjust="spacing" textLength="113.7056" x="1255.7211" y="482.6669">Query/Store Data</text></g><!--link DocumentAPI to MinIO--><g class="link" data-entity-1="DocumentAPI" data-entity-2="MinIO" data-source-line="52" data-uid="lnk35" id="link_DocumentAPI_MinIO"><path d="M1514.6311,406.78 C1468.3511,412.54 1411.9711,428.37 1381.7211,469.6 C1377.2511,475.7 1376.5511,481.09 1381.7211,486.6 C1400.4511,506.59 1483.9511,476.75 1504.7211,494.6 C1512.4611,501.2525 1517.603,510.1513 1520.9567,519.7877 C1521.3759,520.9922 1521.7672,522.2083 1522.1321,523.4329 C1522.3146,524.0453 1520.8994,518.8745 1521.0689,519.4908" fill="none" id="DocumentAPI-to-MinIO" style="stroke:#181818;stroke-width:1;"/><polygon fill="#181818" points="1522.6599,525.276,1524.1302,515.5375,1521.3341,520.455,1516.4166,517.6589,1522.6599,525.276" style="stroke:#181818;stroke-width:1;"/><text fill="#000000" font-family="sans-serif" font-size="13" lengthAdjust="spacing" textLength="138.3091" x="1382.7211" y="482.6669">Retrieve/Upload Files</text></g><!--link InteropAPI to InteropDB--><g class="link" data-entity-1="InteropAPI" data-entity-2="InteropDB" data-source-line="53" data-uid="lnk36" id="link_InteropAPI_InteropDB"><path d="M1779.3111,422.07 C1794.7311,435.5 1817.9011,453.07 1841.7211,461.6 C1887.4511,477.98 1903.1511,459.78 1950.7211,469.6 C1973.3011,474.26 1977.1411,481.98 1999.7211,486.6 C2012.1611,489.15 2104.1511,486.25 2113.7211,494.6 C2117.5573,497.9488 2120.7372,501.8534 2123.3641,506.1266 C2124.0208,507.1948 2124.643,508.2862 2125.2322,509.3976 C2125.3795,509.6754 2122.795,504.6114 2122.9382,504.8918" fill="none" id="InteropAPI-to-InteropDB" style="stroke:#181818;stroke-width:1;"/><polygon fill="#181818" points="2125.6679,510.2348,2125.1354,500.4004,2123.3932,505.7823,2118.0113,504.04,2125.6679,510.2348" style="stroke:#181818;stroke-width:1;"/><text fill="#000000" font-family="sans-serif" font-size="13" lengthAdjust="spacing" textLength="113.7056" x="2000.7211" y="482.6669">Query/Store Data</text></g><!--link NotificationsAPI to NotificationsDB--><g class="link" data-entity-1="NotificationsAPI" data-entity-2="NotificationsDB" data-source-line="54" data-uid="lnk37" id="link_NotificationsAPI_NotificationsDB"><path d="M2022.2511,418.13 C2124.2011,435.06 2304.1511,464.38 2458.7211,486.6 C2472.4711,488.58 2510.5311,485.17 2520.7211,494.6 C2524.4573,498.0587 2527.5619,502.0464 2530.1336,506.3804 C2530.7765,507.464 2531.3861,508.5691 2531.964,509.6931 C2532.1084,509.9741 2529.5848,504.8811 2529.7253,505.1644" fill="none" id="NotificationsAPI-to-NotificationsDB" style="stroke:#181818;stroke-width:1;"/><polygon fill="#181818" points="2532.3914,510.5395,2531.9756,500.6995,2530.1696,506.0603,2524.8088,504.2543,2532.3914,510.5395" style="stroke:#181818;stroke-width:1;"/><text fill="#000000" font-family="sans-serif" font-size="13" lengthAdjust="spacing" textLength="113.7056" x="2459.7211" y="482.6669">Query/Store Data</text></g><!--link DocumentAPI to Queue--><g class="link" data-entity-1="DocumentAPI" data-entity-2="Queue" data-source-line="56" data-uid="lnk38" id="link_DocumentAPI_Queue"><path d="M1577.6311,421.98 C1567.4611,440.5 1556.2711,469.37 1572.7211,486.6 C1585.9311,500.44 1730.1611,482.19 1744.7211,494.6 C1752.4711,501.2075 1757.5573,510.0831 1760.8216,519.7103 C1761.2296,520.9137 1761.6091,522.1289 1761.9619,523.3528 C1762.1382,523.9647 1760.7716,518.7789 1760.9348,519.3949" fill="none" id="DocumentAPI-to-Queue" style="stroke:#181818;stroke-width:1;"/><polygon fill="#181818" points="1762.4711,525.1949,1764.0333,515.4707,1761.1908,520.3616,1756.3,517.5191,1762.4711,525.1949" style="stroke:#181818;stroke-width:1;"/><text fill="#000000" font-family="sans-serif" font-size="13" lengthAdjust="spacing" textLength="179.772" x="1573.7211" y="482.6669">Publish/Consume Messages</text></g><!--link InteropAPI to Queue--><g class="link" data-entity-1="InteropAPI" data-entity-2="Queue" data-source-line="57" data-uid="lnk39" id="link_InteropAPI_Queue"><path d="M1761.0111,421.84 C1761.3811,444.175 1762.0436,484.2325 1762.6211,519.1563 C1762.6391,520.2476 1762.6571,521.334 1762.675,522.4146 C1762.6839,522.9549 1762.6928,523.4938 1762.7017,524.0312 C1762.7061,524.2999 1762.6114,518.569 1762.6158,518.8369" fill="none" id="InteropAPI-to-Queue" style="stroke:#181818;stroke-width:1;"/><polygon fill="#181818" points="1762.715,524.8361,1766.5657,515.7712,1762.6323,519.8368,1758.5667,515.9035,1762.715,524.8361" style="stroke:#181818;stroke-width:1;"/><text fill="#000000" font-family="sans-serif" font-size="13" lengthAdjust="spacing" textLength="179.772" x="1762.7211" y="482.6669">Publish/Consume Messages</text></g><!--link NotificationsAPI to Queue--><g class="link" data-entity-1="NotificationsAPI" data-entity-2="Queue" data-source-line="58" data-uid="lnk40" id="link_NotificationsAPI_Queue"><path d="M2022.4311,415.03 C2086.7811,426.47 2159.9111,448.42 2122.7211,486.6 C2110.9711,498.67 1834.3111,486.19 1819.7211,494.6 C1799.4511,506.295 1785.5686,528.56 1776.6961,548.1562 C1775.587,550.6058 1774.5562,553.0136 1773.601,555.3539 C1773.1235,556.524 1772.6648,557.6773 1772.2246,558.8104 C1772.1146,559.0937 1772.0057,559.3757 1771.898,559.6564 C1771.8441,559.7968 1773.9288,554.3308 1773.8755,554.4704" fill="none" id="NotificationsAPI-to-Queue" style="stroke:#181818;stroke-width:1;"/><polygon fill="#181818" points="1771.7373,560.0765,1778.682,553.0929,1773.5191,555.4048,1771.2073,550.2419,1771.7373,560.0765" style="stroke:#181818;stroke-width:1;"/><text fill="#000000" font-family="sans-serif" font-size="13" lengthAdjust="spacing" textLength="179.772" x="2132.7211" y="482.6669">Publish/Consume Messages</text></g><!--link EndUser to Frontend--><g class="link" data-entity-1="EndUser" data-entity-2="Frontend" data-source-line="60" data-uid="lnk41" id="link_EndUser_Frontend"><path d="M1760.7211,82.19 C1760.7211,130.53 1760.7211,206.56 1760.7211,242.36" fill="none" id="EndUser-to-Frontend" style="stroke:#181818;stroke-width:1;"/><polygon fill="#181818" points="1760.7211,248.36,1764.7211,239.36,1760.7211,243.36,1756.7211,239.36,1760.7211,248.36" style="stroke:#181818;stroke-width:1;"/><text fill="#000000" font-family="sans-serif" font-size="13" lengthAdjust="spacing" textLength="121.5005" x="1761.7211" y="124.8669">Access Application</text></g><!--SRC=[XLMnRjim4Dtv5GTFwM1uBJmKIE86CL8tierCHGTAEjjiQ58bgHP1qN_laQ8iKLBgnI2FxzqzFjx9zbMeYXj-XaAVAwrGkRrxamW62yVLKIAp5uWzyLB_5ke81oujCiOBfmsiy1TANQ41RlqcXbzi4_ciIhzah92wBc6sqiKhdJpM-ImGmfPsy8T1fm9cfIxgCwtcl19BoHrQrn92V7tcHqmfGZaqkXeoraruWg2q4mTHS2UqiaFQr_xX1FbWD2LMPP_p46CD_2zZIfS8iypeiYvy8hYNjIKv0Ut3SHzktu2VwXoDGigPW9y-sW1wroJ8T9auT9kjX_YUGnTuj6S2FRBdmacycM2stbm8hJ4495S0VjPOqrrtFC-5ssm3PXjYpHs_RT1QyX3kZAR- -DxoIkvupYs6FWgtXDKTt6JQkgF1_VRBXyG2EelvTYY3MYvXrUOu-Exjp6gA05XgNrzwzfp_e360VTpVR8HQFpS5mhBD_I1eObhKEqaxuT7lITtnxBhixj761PB7cIoJ8AuN6xvsKvBUWwOTvlDFlI5UGbRR4uJ-jwoBHrHlSjEpP4RJeuavJ07fq34_A6DHKhQYMdYYYMv5CF-xG-fDwmQupk__mePE3S6iNwzVdnvXwGV0l2ry8s5uW16wwRebvND6q6TtyL99pKlm3MXPJsDFydJcaT2H-cdUI58pjDxXN0fxMjmJbG0GvtUawYf-KjbL5ej_Cqb3UFUBWY1mMrKovlm7]--></g></svg>